<svg id="Capa_1" enable-background="new 0 0 512 512" height="512" viewBox="0 0 512 512" width="512" xmlns="http://www.w3.org/2000/svg"><g><g><path d="m396.831 40.966-16.386-16.386c-3.779-3.779-9.675-4.427-14.185-1.558l-45.621 29.021 48.729 48.729 29.021-45.621c2.869-4.51 2.221-10.406-1.558-14.185z" fill="#e4d5f4"/></g><g><path d="m396.831 40.966-12.598-12.598c3.779 3.779 4.426 9.675 1.558 14.184l-29.021 45.621 12.599 12.599 29.021-45.621c2.868-4.51 2.22-10.406-1.559-14.185z" fill="#ddc8f1"/></g><g><path d="m83.615 321.409 16.386 16.386c3.779 3.779 9.675 4.427 14.185 1.558l45.621-29.021-48.729-48.729-29.021 45.621c-2.868 4.51-2.221 10.406 1.558 14.185z" fill="#e4d5f4"/></g><g><path d="m147.422 297.947-45.927 29.216c-3.419 2.175-7.583 2.444-11.153.973l9.66 9.66c3.779 3.779 9.675 4.427 14.185 1.558l45.621-29.021z" fill="#ddc8f1"/></g><g><path d="m100.002 24.58-16.387 16.386c-3.779 3.779-4.427 9.675-1.558 14.185l29.021 45.621 48.729-48.729-45.621-29.021c-4.509-2.869-10.405-2.221-14.184 1.558z" fill="#e4d5f4"/></g><g><path d="m99.839 34.575 47.329 30.107 12.64-12.64-45.621-29.021c-4.509-2.868-10.406-2.221-14.185 1.558l-8.169 8.169c2.725-.32 5.556.268 8.006 1.827z" fill="#ddc8f1"/></g><g><path d="m380.445 337.795 16.386-16.386c3.779-3.779 4.427-9.675 1.558-14.185l-29.021-45.621-48.729 48.729 45.621 29.021c4.51 2.869 10.406 2.221 14.185-1.558z" fill="#e4d5f4"/></g><g><path d="m398.39 307.224-29.021-45.621-12.015 12.015 29.021 45.621c2.868 4.509 2.221 10.406-1.558 14.185l12.015-12.015c3.778-3.779 4.426-9.675 1.558-14.185z" fill="#ddc8f1"/></g><g><path d="m355.998 65.511c-63.555-63.555-166.598-63.555-230.154 0s-63.555 166.598 0 230.154 166.598 63.555 230.154 0 63.555-166.599 0-230.154zm-169.594 169.594c-30.109-30.109-30.109-78.926 0-109.035s78.926-30.109 109.035 0 30.109 78.926 0 109.035-78.926 30.109-109.035 0z" fill="#e28086"/></g><g><g><path d="m355.998 65.511c-3.797-3.797-7.739-7.36-11.801-10.704 52.618 63.93 49.054 158.595-10.704 218.353s-154.423 63.321-218.353 10.704c3.343 4.062 6.907 8.004 10.704 11.801 63.555 63.555 166.598 63.555 230.153 0 63.556-63.556 63.556-166.599.001-230.154z" fill="#dd636e"/></g></g><g><path d="m319.549 38.059-11.687 11.687c-9.872 9.872-18.963 20.474-27.128 31.636l-18.385 25.134c12.115 3.493 23.542 10.008 33.089 19.554 9.546 9.546 16.061 20.974 19.554 33.089l25.134-18.385c11.163-8.165 21.764-17.256 31.636-27.128l11.687-11.687c-7.219-13.071-16.365-25.362-27.452-36.448s-23.377-20.233-36.448-27.452z" fill="#f9f6f9"/></g><g><path d="m162.293 323.116 11.687-11.687c9.872-9.872 18.963-20.474 27.128-31.636l18.385-25.134c-12.115-3.493-23.542-10.008-33.089-19.554-9.546-9.546-16.061-20.974-19.554-33.089l-25.134 18.385c-11.163 8.165-21.764 17.256-31.636 27.128l-11.687 11.687c7.219 13.071 16.365 25.362 27.452 36.448s23.377 20.233 36.448 27.452z" fill="#f9f6f9"/></g><g><path d="m340.127 220.401-25.134-18.385c-3.493 12.115-10.008 23.542-19.554 33.089-9.546 9.546-20.974 16.061-33.089 19.554l18.385 25.134c8.165 11.163 17.256 21.764 27.128 31.636l11.687 11.687c13.071-7.219 25.362-16.365 36.448-27.452s20.233-23.378 27.452-36.448l-11.687-11.687c-9.872-9.872-20.474-18.963-31.636-27.128z" fill="#f9f6f9"/></g><g><g><path d="m115.143 283.865c3.342 4.062 6.905 8.003 10.701 11.799 11.087 11.087 23.378 20.233 36.448 27.452l9.181-9.181c-20.129-6.044-39.317-16.067-56.33-30.07z" fill="#f1eaf9"/></g></g><g><path d="m166.85 159.159c3.493-12.115 10.008-23.542 19.554-33.089s20.974-16.061 33.089-19.554l-18.385-25.134c-8.165-11.163-17.256-21.764-27.128-31.636l-11.687-11.687c-13.071 7.219-25.362 16.365-36.449 27.452s-20.233 23.378-27.452 36.449l11.687 11.687c9.872 9.872 20.474 18.963 31.636 27.128z" fill="#f9f6f9"/></g><g><path d="m371.763 247.529c-3.582-3.582-7.263-7.058-11.029-10.427-7.185 12.926-16.264 25.081-27.24 36.058-10.977 10.977-23.132 20.055-36.058 27.241 3.369 3.766 6.845 7.447 10.427 11.029l11.687 11.687c13.071-7.219 25.362-16.365 36.448-27.452 11.087-11.087 20.233-23.378 27.452-36.448z" fill="#f1eaf9"/></g><g><g><path d="m374.269 111.14 9.181-9.181c-7.219-13.071-16.365-25.362-27.452-36.449-3.796-3.796-7.737-7.36-11.799-10.702 14.002 17.014 24.026 36.202 30.07 56.332z" fill="#f1eaf9"/></g></g><g><path d="m396.572 441.009-48.565-47.628c-3.122-3.061-7.32-4.776-11.692-4.776h-237.686c-4.34 0-7.858 3.518-7.858 7.858v100.313c0 4.34 3.518 7.858 7.858 7.858h237.687c4.372 0 8.57-1.715 11.692-4.776l48.565-47.628c3.141-3.082 3.141-8.141-.001-11.221zm-46.989 22.683c-9.383 0-16.99-7.607-16.99-16.99s7.607-16.99 16.99-16.99 16.99 7.607 16.99 16.99-7.606 16.99-16.99 16.99z" fill="#78d090"/></g><g><path d="m396.572 441.008-18.892-18.527-14.433 14.154c2.081 2.819 3.326 6.293 3.326 10.066 0 9.383-7.607 16.99-16.99 16.99-3.892 0-7.466-1.323-10.331-3.524l-9.671 9.484c-3.239 3.176-7.594 4.955-12.13 4.955h-226.68v22.168c0 4.34 3.518 7.858 7.858 7.858h237.687c4.372 0 8.57-1.715 11.692-4.776l48.565-47.628c3.141-3.08 3.141-8.139-.001-11.22z" fill="#66b49d"/></g><g><path d="m156.646 497.266h-58.017c-.271 0-.491-.22-.491-.491v-100.313c0-.271.221-.491.491-.491h237.686c2.459 0 4.779.948 6.534 2.67l27.017 26.495c2.905 2.848 7.569 2.804 10.417-.102 2.849-2.905 2.804-7.569-.102-10.418l-27.016-26.494c-4.527-4.439-10.51-6.884-16.851-6.884h-237.685c-8.395 0-15.225 6.83-15.225 15.225v100.313c0 8.395 6.83 15.225 15.225 15.225h58.017c4.069 0 7.367-3.298 7.367-7.367s-3.298-7.368-7.367-7.368z"/><path d="m442.032 350.638c12.907-12.908 13.62-33.797 1.623-47.554l-25.962-29.772c2.266-6.848 3.446-14.089 3.414-21.519-.065-14.47-4.663-28.2-13.1-39.608 3.683-19.633 3.903-39.792.656-59.487 8.683-11.509 13.41-25.444 13.475-40.134.1-18.483-7.274-35.871-20.543-48.726l3.011-4.732c4.758-7.478 3.704-17.08-2.565-23.348l-16.386-16.386c-6.267-6.269-15.87-7.325-23.348-2.565l-4.141 2.634c-12.689-12.543-29.457-19.441-47.302-19.441-14.57-.002-28.44 4.607-39.926 13.108-9.811-1.737-19.845-2.631-30.017-2.631-10.556 0-20.961.967-31.125 2.836-11.179-7.911-24.476-12.218-38.469-12.28-17.924-.052-34.781 6.802-47.534 19.369l-5.653-3.596c-7.477-4.758-17.08-3.704-23.348 2.565l-16.387 16.386c-6.267 6.267-7.321 15.868-2.564 23.347l3.611 5.676c-12.089 12.657-18.701 29.188-18.624 46.752.063 14.245 4.527 27.77 12.715 39.072-3.508 19.743-3.522 39.987-.042 59.734-8.825 11.566-13.639 25.609-13.704 40.424-.08 17.879 6.767 34.692 19.273 47.433l-3.229 5.076c-4.758 7.48-3.703 17.081 2.565 23.347l16.387 16.387c6.295 6.298 15.923 7.297 23.348 2.565l6.263-3.984.058.058c12.722 12.722 29.612 19.717 47.592 19.717.102 0 .205 0 .306-.001 14.521-.064 28.3-4.693 39.731-13.186 9.535 1.627 19.183 2.444 28.831 2.444 10.605 0 21.208-.991 31.663-2.956 11.288 8.157 24.788 12.603 39.006 12.666 17.148.082 33.359-6.238 45.905-17.819l4.812 3.061c7.426 4.733 17.052 3.733 23.348-2.566l16.386-16.386c6.269-6.268 7.324-15.87 2.565-23.348l-2.652-4.169c3.387-3.468 6.35-7.238 8.875-11.246l21.723 24.911c6.926 7.942 6.513 20.001-.937 27.453l-14.076 14.074c-12.648 12.649-13.7 32.673-2.444 46.577l6.882 8.5c2.634 3.254 4.085 7.352 4.085 11.54 0 10.113-8.227 18.341-18.341 18.341h-34.95c-3.155-9.797-12.355-16.907-23.187-16.907-13.43 0-24.357 10.927-24.357 24.357s10.927 24.357 24.357 24.357c10.894 0 20.139-7.19 23.243-17.073h11.434l-41.412 40.612c-1.754 1.721-4.075 2.669-6.533 2.669h-145.424c-4.069 0-7.367 3.298-7.367 7.367s3.298 7.367 7.367 7.367h145.423c6.341 0 12.325-2.445 16.85-6.883l48.566-47.629c1.07-1.049 1.959-2.23 2.665-3.502 28.453 3.187 47.634-31.996 29.031-53.885l-6.882-8.5c-6.497-8.027-5.891-19.587 1.411-26.889zm-167.655-20.775c-17.788-18.837-49.876-17.169-66.348 2.528-11.418-2.456-22.61-6.208-33.341-11.252 11.716-11.437 22.806-23.839 32.366-36.996l15.479-21.162c6.051 1.34 12.217 2.034 18.387 2.034 6.171 0 12.337-.694 18.388-2.034l15.479 21.162c9.559 13.157 20.653 25.564 32.37 37-9.921 4.664-20.236 8.218-30.76 10.668-.686-.631-1.362-1.278-2.02-1.948zm-143.323-39.408c-9.221-9.221-17.03-19.326-23.444-30.039l7.679-7.678c9.586-9.586 19.941-18.465 30.776-26.391l17.161-12.552c4.181 9.779 10.222 18.773 17.968 26.52 7.859 7.859 16.901 13.82 26.55 17.928l-12.583 17.202c-7.926 10.836-16.806 21.191-26.391 30.776l-7.677 7.677c-10.714-6.414-20.819-14.223-30.039-23.443zm-44.778-124.144c2.528 4.651 3.823 9.939 3.645 15.315-.156 4.74-1.416 9.294-3.635 13.359-.88-9.535-.883-19.137-.01-28.674zm3.985 47.238c8.795-8.183 14.014-19.411 14.386-31.437.553-13.532-5.466-26.298-15.315-35.405 2.457-11.077 6.137-21.933 11.036-32.354 11.438 11.716 23.843 22.809 36.999 32.367l21.116 15.446c-1.325 5.982-2.029 12.146-2.029 18.422 0 6.275.704 12.439 2.029 18.422l-21.116 15.446c-13.156 9.557-25.562 20.652-36.998 32.367-4.894-10.411-8.572-21.257-11.029-32.322.307-.318.605-.641.921-.952zm70.793-166.31c12.189 11.879 24.224 24.767 34.107 38.492l12.599 17.225c-9.756 4.145-18.81 10.148-26.567 17.905-7.747 7.747-13.787 16.741-17.968 26.52l-17.161-12.553c-10.835-7.926-21.19-16.805-30.776-26.391l-7.678-7.679c6.414-10.713 14.223-20.818 23.443-30.038 9.136-9.135 19.208-16.991 30.001-23.481zm47.487-15.741c8.741 8.896 20.902 13.758 33.368 13.353 12.887-.284 24.463-6.49 33.025-15.925 11.173 2.483 21.987 6.187 32.282 11.049l-4.562 4.562c-15.764 15.224-30.467 35.89-43.325 53.633-12.192-2.694-24.763-2.627-36.778.05l-15.496-21.186c-9.573-13.177-20.692-25.604-32.426-37.058 10.026-4.735 20.546-8.368 31.409-10.848.852.762 1.692 1.545 2.503 2.37zm165.691 69.261-7.678 7.678c-9.589 9.588-19.943 18.467-30.776 26.391l-17.206 12.586c-3.364-7.918-7.975-15.436-13.888-22.228-2.672-3.069-7.325-3.391-10.394-.719-3.069 2.671-3.391 7.325-.719 10.393 23.929 27.488 22.461 69.234-3.342 95.036-27.188 27.188-71.426 27.189-98.616 0-13.171-13.171-20.425-30.682-20.425-49.308s7.254-36.138 20.425-49.308c20.506-20.507 51.993-26.178 78.352-14.11 3.702 1.695 8.073.067 9.765-3.632 1.694-3.699.068-8.071-3.632-9.765-.657-.301-1.321-.579-1.984-.862l12.566-17.18c7.926-10.836 16.805-21.19 26.39-30.776l7.717-7.716c21.486 12.8 40.756 32.096 53.445 53.52zm-53.481 213.141-7.68-7.68c-9.585-9.585-18.464-19.94-26.39-30.776l-12.583-17.202c9.649-4.108 18.691-10.069 26.55-17.928 7.831-7.831 13.809-16.875 17.918-26.556l17.211 12.589c10.838 7.929 21.193 16.808 30.777 26.391l7.678 7.678c-6.414 10.713-14.223 20.818-23.444 30.039-9.221 9.222-19.325 17.031-30.037 23.445zm60.723-67.078c-11.436-11.716-23.838-22.804-36.998-32.367l-21.18-15.492c2.671-12.077 2.668-24.646.002-36.752l21.178-15.491c11.442-8.368 22.374-17.743 32.495-27.864l4.503-4.502c5.165 10.988 8.971 22.46 11.421 34.163-9.313 8.475-15.302 19.994-15.607 32.698-.507 13.256 5.19 25.919 14.841 34.903-2.45 10.503-6 20.8-10.655 30.704zm13.927-50.281c-2.361-4.535-3.558-9.649-3.387-14.842.158-4.795 1.443-9.4 3.71-13.501.748 9.435.641 18.924-.323 28.343zm12.004-84.042c-.03 6.623-1.287 13.044-3.636 19.023-4.324-14.438-10.601-28.41-18.832-41.497l8.528-13.407c9.059 9.801 13.999 22.456 13.94 35.881zm-32.17-82.71 16.387 16.386c1.348 1.349 1.575 3.413.552 5.022l-16.367 25.729c-4.446-5.777-9.309-11.334-14.599-16.624-5.298-5.298-10.89-10.195-16.728-14.693l11.632-7.4 13.084 13.084c2.878 2.877 7.541 2.877 10.419 0 2.877-2.877 2.877-7.541 0-10.418l-10.767-10.767 1.368-.87c1.607-1.023 3.671-.798 5.019.551zm-64.613-15.055c12.877-.059 25.07 4.5 34.693 12.88l-13.916 8.852c-12.341-7.78-25.586-13.892-39.453-18.232 5.88-2.262 12.181-3.471 18.676-3.5zm-54.838 11.18c-4.312 2.576-9.227 4.042-14.361 4.211-5.73.191-11.344-1.279-16.196-4.133 5.181-.516 10.417-.781 15.693-.781 4.996 0 9.954.24 14.864.703zm-84.761-10.149c6.009 0 11.88 1.014 17.39 2.939-13.59 4.392-26.569 10.494-38.669 18.205l-13.095-8.33c9.554-8.285 21.608-12.814 34.374-12.814zm-82.198 30.41 16.386-16.386c1.35-1.35 3.416-1.574 5.023-.552l26.495 16.854c-5.61 4.364-10.987 9.103-16.093 14.21-5.594 5.595-10.706 11.491-15.356 17.628l-7.075-11.119 13.915-13.916c2.877-2.877 2.877-7.541 0-10.418-2.878-2.877-7.541-2.877-10.419 0l-11.598 11.598-1.83-2.877c-1.024-1.609-.796-3.674.552-5.022zm-13.263 65.292c-.055-12.485 4.213-24.306 12.097-33.784l8.556 13.45c-7.483 12.104-13.304 24.949-17.469 38.207-2.065-5.648-3.156-11.674-3.184-17.873zm-1.032 139.36c.03-6.924 1.395-13.629 3.956-19.837 4.251 13.781 10.277 27.127 18.102 39.665l-9.337 14.678c-8.278-9.596-12.777-21.699-12.721-34.506zm35.703 82.311c-1.607 1.023-3.674.798-5.022-.551l-16.386-16.387c-1.348-1.348-1.574-3.412-.552-5.021l17.419-27.384c4.539 5.939 9.514 11.651 14.942 17.079 5.393 5.393 11.066 10.34 16.964 14.856l-11.133 7.082-12.743-12.743c-2.877-2.877-7.541-2.878-10.419 0-2.877 2.877-2.877 7.541 0 10.418l10.427 10.427zm62.062 13.488c-.081 0-.16 0-.24 0-12.966 0-25.201-4.667-34.824-13.202l13.496-8.585c2.808 1.738 5.628 3.436 8.526 4.98 10.165 5.557 20.779 9.998 31.666 13.327-5.865 2.25-12.148 3.452-18.624 3.48zm68.625-10.735c-4.515 0-9.029-.206-13.53-.597 4.25-2.481 9.072-3.893 14.103-4.059 5.485-.189 10.886 1.169 15.611 3.809-5.378.559-10.78.848-16.184.847zm70.974 9.704c-.08 0-.16 0-.239 0-6.279-.028-12.38-1.151-18.092-3.27 12.776-4.135 25.153-9.821 36.84-17.049l14.103 8.971c-9.254 7.352-20.618 11.348-32.612 11.348zm79.729-29.395-16.388 16.387c-1.346 1.348-3.412 1.575-5.021.552l-26.61-16.927c6.127-4.646 12.015-9.75 17.603-15.337 5.124-5.124 9.85-10.498 14.182-16.08l7.8 12.262-13.375 13.375c-2.877 2.877-2.877 7.541 0 10.418 2.878 2.877 7.541 2.877 10.419 0l11.057-11.057.882 1.387c1.025 1.608.798 3.672-.549 5.02zm2.144-29.968-9.214-14.485c7.794-12.277 13.871-25.337 18.212-38.842 2.332 5.959 3.579 12.355 3.608 18.951.014 3.206-.271 6.364-.814 9.454-2.285-.606-4.821-.103-6.737 1.567-3.066 2.674-3.384 7.328-.71 10.394l2.473 2.835c-1.853 3.602-4.136 6.995-6.818 10.126zm-53.807 160.47c0-5.306 4.317-9.623 9.623-9.623 2.555 0 4.874 1.007 6.598 2.637-2.808 1.039-4.814 3.733-4.814 6.903 0 3.219 2.067 5.948 4.944 6.951-1.737 1.702-4.111 2.755-6.728 2.755-5.306 0-9.623-4.317-9.623-9.623z"/><path d="m154.682 428.395c4.069 0 7.367-3.298 7.367-7.367s-3.298-7.367-7.367-7.367h-21.502c-4.069 0-7.367 3.298-7.367 7.367v53.05c0 4.069 3.298 7.367 7.367 7.367s7.367-3.298 7.367-7.367v-19.66h12.426c4.069 0 7.367-3.298 7.367-7.367s-3.298-7.367-7.367-7.367h-12.426v-11.289z"/><path d="m257.11 428.492c4.069 0 7.367-3.298 7.367-7.367s-3.298-7.367-7.367-7.367h-22.313c-4.069 0-7.367 3.298-7.367 7.367v52.953c0 4.069 3.298 7.367 7.367 7.367h22.313c4.069 0 7.367-3.298 7.367-7.367s-3.298-7.367-7.367-7.367h-14.946v-11.743h13.301c4.069 0 7.367-3.298 7.367-7.367s-3.298-7.367-7.367-7.367h-13.301v-11.742z"/><path d="m304.263 428.492c4.069 0 7.367-3.298 7.367-7.367s-3.298-7.367-7.367-7.367h-22.313c-4.069 0-7.367 3.298-7.367 7.367v52.953c0 4.069 3.298 7.367 7.367 7.367h22.313c4.069 0 7.367-3.298 7.367-7.367s-3.298-7.367-7.367-7.367h-14.946v-11.743h13.301c4.069 0 7.367-3.298 7.367-7.367s-3.298-7.367-7.367-7.367h-13.301v-11.742z"/><path d="m187.888 474.321v-13.307l15.996 18.174c2.696 3.063 7.355 3.343 10.397.663 3.054-2.688 3.351-7.343.663-10.397l-12.885-14.639c8.565-2.917 14.721-10.799 14.721-20.046 0-11.72-9.888-21.256-22.041-21.256h-14.201c-.003 0-.006 0-.009 0s-.006 0-.009 0c-4.069 0-7.367 3.298-7.367 7.367v53.441c0 4.069 3.298 7.367 7.367 7.367 4.07 0 7.368-3.298 7.368-7.367zm6.852-46.074c3.961 0 7.307 2.987 7.307 6.522s-3.347 6.522-7.307 6.522c-1.6 0-4.223.01-6.777.022-.012-2.48-.028-10.463-.035-13.066z"/></g></g></svg>